# xmcd
#
# Track frame offsets:
#	150
#	18323
#	33480
#	49085
#	66493
#	86030
#	98395
#	115315
#	130388
#	148113
#	160870
#	174123
#	187443
#	208228
#	223510
#	238488
#	254633
#	270670
#	286133
#	299740
#	300493
#	301245
#	301997
#	303175
#	304677
#	305800
#	306795
#	308395
#	309898
#	311368
#	312480
#	313690
#	315320
#	316685
#	318023
#	319320
#	320235
#	321418
#	322710
#	324107
#	325835
#
# Disc length: 4359 seconds
#
# Revision: 0
# Processed by: cddbd v1.5.2PL0 Copyright (c) Steve Scherf et al.
# Submitted via: EasyCDDAExtractor 7.1.2.1
#
DISCID=50110529
DTITLE=Various Artist - TM Century - GoldDisc 1169
DYEAR=1900
DGENRE=Country
TTITLE0=Shania Twain - This Woman In Me (Needs The Man In You)
TTITLE1=Neal McCoy - If I Was A Drinkin' Man
TTITLE2=Lonestar - Tequila Talkin'
TTITLE3=Mavericks - Here Comes The Rain
TTITLE4=Vince Gill - Go Rest On That Mountain [Edited Version]
TTITLE5=Little Texas - Life Goes On
TTITLE6=Lorrie Morgan - Back In Your Arms Again
TTITLE7=Aaron Tippin - That's As Close As I'll Get To Loving You
TTITLE8=Tracy Byrd - Love Lessons
TTITLE9=Clay Walker - Who Needs You Baby
TTITLE10=Brooks and Dunn - Whiskey Under The Bridge
TTITLE11=Garth Brooks - She's Every Woman
TTITLE12=Reba McEntire - On My Own
TTITLE13=George Strait - Check Yes Or No
TTITLE14=Dolly Parton and Vince Gill - I Will Always Love You
TTITLE15=Alabama - In Pictures
TTITLE16=Jeff Carson - The Car
TTITLE17=Pam Tillis - Deep Down
TTITLE18=Clint Black - Lide Gets Away
TTITLE19=preview - preview
TTITLE20=preview - preview
TTITLE21=preview - preview
TTITLE22=preview - preview
TTITLE23=preview - preview
TTITLE24=preview - preview
TTITLE25=preview - preview
TTITLE26=preview - preview
TTITLE27=preview - preview
TTITLE28=preview - preview
TTITLE29=preview - preview
TTITLE30=preview - preview
TTITLE31=preview - preview
TTITLE32=preview - preview
TTITLE33=preview - preview
TTITLE34=preview - preview
TTITLE35=preview - preview
TTITLE36=preview - preview
TTITLE37=preview - preview
TTITLE38=preview - preview
TTITLE39=preview - preview
TTITLE40=preview - preview
EXTD=
EXTT0=
EXTT1=
EXTT2=
EXTT3=
EXTT4=
EXTT5=
EXTT6=
EXTT7=
EXTT8=
EXTT9=
EXTT10=
EXTT11=
EXTT12=
EXTT13=
EXTT14=
EXTT15=
EXTT16=
EXTT17=
EXTT18=
EXTT19=
EXTT20=
EXTT21=
EXTT22=
EXTT23=
EXTT24=
EXTT25=
EXTT26=
EXTT27=
EXTT28=
EXTT29=
EXTT30=
EXTT31=
EXTT32=
EXTT33=
EXTT34=
EXTT35=
EXTT36=
EXTT37=
EXTT38=
EXTT39=
EXTT40=
PLAYORDER=
